<svg xmlns="http://www.w3.org/2000/svg" version="1.1" xmlns:xlink="http://www.w3.org/1999/xlink" xmlns:svgjs="http://svgjs.dev/svgjs" width="100%" height="100%" viewBox="0 0 1000 600"><rect width="1000" height="600" x="0" y="0" fill="#234e70"/><g><rect width="333.3333333333333" height="333.3333333333333" y="77.77777014838344" fill="#fbf8be" transform="matrix(2.2499999313354513,0,0,2.2499999313354517,0,-249.99999084472722)" x="55.55555725097656"/><path d="M99.28706207221217 263.872448653653L83.4833145773315 308.0785629412053L97.88173663194976 309.8537108657473Q98.57207193593831 312.51643275256026 97.88173663194976 316.4365510859237L97.88173663194976 316.4365510859237Q86.68844277442119 315.8941447756471 79.04544476597655 315.8941447756471L79.04544476597655 315.8941447756471Q74.80481361290406 315.8941447756471 59.88864008029438 316.2393124276414L59.88864008029438 316.2393124276414Q58.82848229202625 313.0588390628369 59.88864008029438 309.8537108657473L59.88864008029438 309.8537108657473L71.59968541581438 307.733395289211Q74.43499112862447 303.4681093038532 78.70027711398228 291.9296477943303L78.70027711398228 291.9296477943303L124.50895550007944 169.44444100093392L130.72197323597635 169.44444100093392L182.20126304769371 308.0785629412053L196.57503027002667 309.8537108657473Q197.2900204063005 312.51643275256026 196.57503027002667 316.4365510859237L196.57503027002667 316.4365510859237Q185.38173641249807 315.8941447756471 171.55037550044185 315.8941447756471L171.55037550044185 315.8941447756471Q161.24465560518425 315.8941447756471 146.3284820725746 316.2393124276414L146.3284820725746 316.2393124276414Q145.26832428430646 313.0588390628369 146.3284820725746 309.8537108657473L146.3284820725746 309.8537108657473L161.07207177918713 307.733395289211L145.44090811030355 263.872448653653L99.28706207221217 263.872448653653ZM122.90639140153459 196.2442436950607L122.90639140153459 196.2442436950607L122.73380757553744 196.2442436950607Q120.5888371667159 204.6022318397792 115.80579970336669 218.08842509984115L115.80579970336669 218.08842509984115L102.49219026930184 254.9967090309431L142.2604347454992 254.9967090309431L129.29199296342864 218.08842509984115Q125.56911328834757 207.26495372659215 122.90639140153459 196.2442436950607ZM223.72000061614773 203.34483539322864L223.72000061614773 232.289608496177Q238.46359032276027 217.54601878956444 255.86990191618577 217.54601878956444L255.86990191618577 217.54601878956444Q273.07897485132884 217.54601878956444 282.7436691071685 230.514460571635Q292.43301819529347 243.45824752142025 292.43301819529347 265.4750127521978L292.43301819529347 265.4750127521978Q292.43301819529347 290.4996675217826 278.94682493523146 304.9720540732568Q265.4359768428842 319.444440624731 245.39159819493108 319.444440624731L245.39159819493108 319.444440624731Q227.98528660150555 319.444440624731 218.04938919052753 307.01840515293713L218.04938919052753 307.01840515293713L214.32650951544645 319.0992729727368Q210.9487974923596 319.6170244507282 208.63124325754094 319.0992729727368L208.63124325754094 319.0992729727368L206.85609533299893 299.572645802775L206.85609533299893 183.30045674527548L192.30974428466885 181.52530882073353Q191.59475414839503 178.86258693392057 192.30974428466885 174.76988477455984L192.30974428466885 174.76988477455984Q204.56319593046558 173.8823108122889 222.83242665387672 171.04700509947878L222.83242665387672 171.04700509947878Q224.4349907524216 172.82215302402074 224.60757457841873 174.59730094856275L224.60757457841873 174.59730094856275Q223.72000061614773 179.2077545859148 223.72000061614773 203.34483539322864L223.72000061614773 203.34483539322864ZM249.2870616960093 309.6811270397501L249.2870616960093 309.6811270397501Q260.30777172754074 309.6811270397501 267.48232792256454 299.4740264736338Q274.6815389498737 289.26692590751736 274.6815389498737 270.62787269982664L274.6815389498737 270.62787269982664Q274.6815389498737 266.9049930247455 274.5089551238766 264.9572612742064L274.5089551238766 264.9572612742064Q274.5089551238766 247.37836585478377 267.48232792256454 237.78763609580008Q260.48035555353783 228.19690633681634 249.829468006286 228.19690633681634L249.829468006286 228.19690633681634Q243.61645027038907 228.19690633681634 236.34327474622404 232.19098916703578Q229.04544438977365 236.18507199725522 223.72000061614773 243.113079869426L223.72000061614773 243.113079869426L223.72000061614773 297.42767539395345Q229.76043452604753 304.3556832661242 235.2584621256706 307.01840515293713Q240.78114455757898 309.6811270397501 249.2870616960093 309.6811270397501ZM385.08587792347066 243.82807000569986L385.08587792347066 243.82807000569986Q381.36299824838943 247.72353350677807 367.506982504048 247.55094968078092L367.506982504048 247.55094968078092Q364.6716767912378 225.18901679800908 351.358067357173 225.18901679800908L351.358067357173 225.18901679800908Q340.87976363591827 225.18901679800908 333.60658811175324 237.24522978552332Q326.3334125875882 249.32609760532293 326.3334125875882 269.02530860128184L326.3334125875882 269.02530860128184Q326.3334125875882 289.26692590751736 332.7190141494822 300.18901660990764Q339.10461571137625 311.1111073122978 351.9004736674498 311.1111073122978L351.9004736674498 311.1111073122978Q365.38666692751167 311.1111073122978 378.3551087095823 300.0903972807664L378.3551087095823 300.0903972807664Q381.01783059639524 301.6929613793112 382.4231560366576 305.5884248803894L382.4231560366576 305.5884248803894Q369.47936908687234 319.444440624731 349.95274191691055 319.444440624731L349.95274191691055 319.444440624731Q331.31368870921983 319.444440624731 319.4054047154174 306.5746181718017Q307.5217755539003 293.70479571887233 307.5217755539003 268.68014094928753L307.5217755539003 268.68014094928753Q307.5217755539003 244.7156439679708 320.73676565882386 231.13083137876762Q333.9764105960328 217.54601878956444 351.0128997051787 217.54601878956444L351.0128997051787 217.54601878956444Q364.4990929652407 217.54601878956444 374.80481286049826 224.30144283573807Q385.08587792347066 231.0322120496264 385.08587792347066 243.82807000569986Z " fill="#ff0000" transform="matrix(2.2499999313354513,0,0,2.2499999313354517,0,-249.99999084472722)"/><path d="MNaN 244.44444105360233 " fill="#fbf8be" transform="matrix(2.2499999313354513,0,0,2.2499999313354517,0,-249.99999084472722)"/></g></svg>